<?xml version="1.0" encoding="UTF-8" standalone="no"?>
<!DOCTYPE svg PUBLIC "-//W3C//DTD SVG 1.1//EN"
 "http://www.w3.org/Graphics/SVG/1.1/DTD/svg11.dtd">
<!-- Generated by graphviz version 14.0.2 (20251019.1705)
 -->
<!-- Pages: 1 -->
<svg width="426pt" height="628pt"
 viewBox="0.00 0.00 426.00 628.00" xmlns="http://www.w3.org/2000/svg" xmlns:xlink="http://www.w3.org/1999/xlink">
<g id="graph0" class="graph" transform="scale(1 1) rotate(0) translate(4 624)">
<polygon fill="white" stroke="none" points="-4,4 -4,-624 422,-624 422,4 -4,4"/>
<!-- 2910291797792 -->
<g id="node1" class="node">
<title>2910291797792</title>
<polygon fill="#caff70" stroke="black" points="219,-32.75 161,-32.75 161,0 219,0 219,-32.75"/>
<text xml:space="preserve" text-anchor="middle" x="190" y="-7.25" font-family="monospace" font-size="10.00"> (1, 1)</text>
</g>
<!-- 2910291767104 -->
<g id="node2" class="node">
<title>2910291767104</title>
<polygon fill="lightgrey" stroke="black" points="246,-89.5 134,-89.5 134,-68.75 246,-68.75 246,-89.5"/>
<text xml:space="preserve" text-anchor="middle" x="190" y="-76" font-family="monospace" font-size="10.00">SigmoidBackward0</text>
</g>
<!-- 2910291767104&#45;&gt;2910291797792 -->
<g id="edge21" class="edge">
<title>2910291767104&#45;&gt;2910291797792</title>
<path fill="none" stroke="black" d="M190,-68.36C190,-61.89 190,-53.05 190,-44.55"/>
<polygon fill="black" stroke="black" points="193.5,-44.55 190,-34.55 186.5,-44.55 193.5,-44.55"/>
</g>
<!-- 2910291763456 -->
<g id="node3" class="node">
<title>2910291763456</title>
<polygon fill="lightgrey" stroke="black" points="240,-146.25 140,-146.25 140,-125.5 240,-125.5 240,-146.25"/>
<text xml:space="preserve" text-anchor="middle" x="190" y="-132.75" font-family="monospace" font-size="10.00">AddmmBackward0</text>
</g>
<!-- 2910291763456&#45;&gt;2910291767104 -->
<g id="edge1" class="edge">
<title>2910291763456&#45;&gt;2910291767104</title>
<path fill="none" stroke="black" d="M190,-125.09C190,-118.47 190,-109.47 190,-101.27"/>
<polygon fill="black" stroke="black" points="193.5,-101.34 190,-91.34 186.5,-101.34 193.5,-101.34"/>
</g>
<!-- 2910291765616 -->
<g id="node4" class="node">
<title>2910291765616</title>
<polygon fill="lightgrey" stroke="black" points="125,-203 25,-203 25,-182.25 125,-182.25 125,-203"/>
<text xml:space="preserve" text-anchor="middle" x="75" y="-189.5" font-family="monospace" font-size="10.00">AccumulateGrad</text>
</g>
<!-- 2910291765616&#45;&gt;2910291763456 -->
<g id="edge2" class="edge">
<title>2910291765616&#45;&gt;2910291763456</title>
<path fill="none" stroke="black" d="M95.56,-181.84C113.3,-173.39 139.18,-161.07 159.37,-151.46"/>
<polygon fill="black" stroke="black" points="160.73,-154.69 168.25,-147.23 157.72,-148.37 160.73,-154.69"/>
</g>
<!-- 2910289475600 -->
<g id="node5" class="node">
<title>2910289475600</title>
<polygon fill="lightblue" stroke="black" points="116,-272.5 34,-272.5 34,-239 116,-239 116,-272.5"/>
<text xml:space="preserve" text-anchor="middle" x="75" y="-259" font-family="monospace" font-size="10.00">output.bias</text>
<text xml:space="preserve" text-anchor="middle" x="75" y="-246.25" font-family="monospace" font-size="10.00"> (1)</text>
</g>
<!-- 2910289475600&#45;&gt;2910291765616 -->
<g id="edge3" class="edge">
<title>2910289475600&#45;&gt;2910291765616</title>
<path fill="none" stroke="black" d="M75,-238.69C75,-231.35 75,-222.57 75,-214.71"/>
<polygon fill="black" stroke="black" points="78.5,-214.98 75,-204.98 71.5,-214.98 78.5,-214.98"/>
</g>
<!-- 2910291766864 -->
<g id="node6" class="node">
<title>2910291766864</title>
<polygon fill="lightgrey" stroke="black" points="237,-203 143,-203 143,-182.25 237,-182.25 237,-203"/>
<text xml:space="preserve" text-anchor="middle" x="190" y="-189.5" font-family="monospace" font-size="10.00">ReluBackward0</text>
</g>
<!-- 2910291766864&#45;&gt;2910291763456 -->
<g id="edge4" class="edge">
<title>2910291766864&#45;&gt;2910291763456</title>
<path fill="none" stroke="black" d="M190,-181.84C190,-175.22 190,-166.22 190,-158.02"/>
<polygon fill="black" stroke="black" points="193.5,-158.09 190,-148.09 186.5,-158.09 193.5,-158.09"/>
</g>
<!-- 2910291765280 -->
<g id="node7" class="node">
<title>2910291765280</title>
<polygon fill="lightgrey" stroke="black" points="237,-266.12 137,-266.12 137,-245.38 237,-245.38 237,-266.12"/>
<text xml:space="preserve" text-anchor="middle" x="187" y="-252.62" font-family="monospace" font-size="10.00">AddmmBackward0</text>
</g>
<!-- 2910291765280&#45;&gt;2910291766864 -->
<g id="edge5" class="edge">
<title>2910291765280&#45;&gt;2910291766864</title>
<path fill="none" stroke="black" d="M187.48,-244.93C187.88,-236.77 188.47,-224.88 188.97,-214.6"/>
<polygon fill="black" stroke="black" points="192.46,-214.89 189.45,-204.73 185.47,-214.55 192.46,-214.89"/>
</g>
<!-- 2910291766048 -->
<g id="node8" class="node">
<title>2910291766048</title>
<polygon fill="lightgrey" stroke="black" points="100,-335.62 0,-335.62 0,-314.88 100,-314.88 100,-335.62"/>
<text xml:space="preserve" text-anchor="middle" x="50" y="-322.12" font-family="monospace" font-size="10.00">AccumulateGrad</text>
</g>
<!-- 2910291766048&#45;&gt;2910291765280 -->
<g id="edge6" class="edge">
<title>2910291766048&#45;&gt;2910291765280</title>
<path fill="none" stroke="black" d="M69.92,-314.43C92.75,-303.19 130.41,-284.63 156.84,-271.61"/>
<polygon fill="black" stroke="black" points="158.27,-274.81 165.7,-267.25 155.18,-268.53 158.27,-274.81"/>
</g>
<!-- 2910291810640 -->
<g id="node9" class="node">
<title>2910291810640</title>
<polygon fill="lightblue" stroke="black" points="91,-411.5 9,-411.5 9,-378 91,-378 91,-411.5"/>
<text xml:space="preserve" text-anchor="middle" x="50" y="-398" font-family="monospace" font-size="10.00">layer2.bias</text>
<text xml:space="preserve" text-anchor="middle" x="50" y="-385.25" font-family="monospace" font-size="10.00"> (16)</text>
</g>
<!-- 2910291810640&#45;&gt;2910291766048 -->
<g id="edge7" class="edge">
<title>2910291810640&#45;&gt;2910291766048</title>
<path fill="none" stroke="black" d="M50,-377.75C50,-368.65 50,-357.14 50,-347.32"/>
<polygon fill="black" stroke="black" points="53.5,-347.59 50,-337.59 46.5,-347.59 53.5,-347.59"/>
</g>
<!-- 2910291766096 -->
<g id="node10" class="node">
<title>2910291766096</title>
<polygon fill="lightgrey" stroke="black" points="212,-335.62 118,-335.62 118,-314.88 212,-314.88 212,-335.62"/>
<text xml:space="preserve" text-anchor="middle" x="165" y="-322.12" font-family="monospace" font-size="10.00">ReluBackward0</text>
</g>
<!-- 2910291766096&#45;&gt;2910291765280 -->
<g id="edge8" class="edge">
<title>2910291766096&#45;&gt;2910291765280</title>
<path fill="none" stroke="black" d="M168.15,-314.58C171.32,-304.85 176.3,-289.57 180.35,-277.15"/>
<polygon fill="black" stroke="black" points="183.61,-278.43 183.38,-267.84 176.96,-276.27 183.61,-278.43"/>
</g>
<!-- 2910291765136 -->
<g id="node11" class="node">
<title>2910291765136</title>
<polygon fill="lightgrey" stroke="black" points="212,-405.12 112,-405.12 112,-384.38 212,-384.38 212,-405.12"/>
<text xml:space="preserve" text-anchor="middle" x="162" y="-391.62" font-family="monospace" font-size="10.00">AddmmBackward0</text>
</g>
<!-- 2910291765136&#45;&gt;2910291766096 -->
<g id="edge9" class="edge">
<title>2910291765136&#45;&gt;2910291766096</title>
<path fill="none" stroke="black" d="M162.43,-384.08C162.86,-374.46 163.53,-359.38 164.08,-347.04"/>
<polygon fill="black" stroke="black" points="167.56,-347.56 164.5,-337.42 160.56,-347.25 167.56,-347.56"/>
</g>
<!-- 2910291763360 -->
<g id="node12" class="node">
<title>2910291763360</title>
<polygon fill="lightgrey" stroke="black" points="112,-474.62 12,-474.62 12,-453.88 112,-453.88 112,-474.62"/>
<text xml:space="preserve" text-anchor="middle" x="62" y="-461.12" font-family="monospace" font-size="10.00">AccumulateGrad</text>
</g>
<!-- 2910291763360&#45;&gt;2910291765136 -->
<g id="edge10" class="edge">
<title>2910291763360&#45;&gt;2910291765136</title>
<path fill="none" stroke="black" d="M76.33,-453.58C92.42,-442.71 118.81,-424.9 138.05,-411.91"/>
<polygon fill="black" stroke="black" points="139.79,-414.97 146.12,-406.47 135.87,-409.16 139.79,-414.97"/>
</g>
<!-- 2910291810480 -->
<g id="node13" class="node">
<title>2910291810480</title>
<polygon fill="lightblue" stroke="black" points="102,-550.5 20,-550.5 20,-517 102,-517 102,-550.5"/>
<text xml:space="preserve" text-anchor="middle" x="61" y="-537" font-family="monospace" font-size="10.00">layer1.bias</text>
<text xml:space="preserve" text-anchor="middle" x="61" y="-524.25" font-family="monospace" font-size="10.00"> (32)</text>
</g>
<!-- 2910291810480&#45;&gt;2910291763360 -->
<g id="edge11" class="edge">
<title>2910291810480&#45;&gt;2910291763360</title>
<path fill="none" stroke="black" d="M61.24,-516.75C61.37,-507.65 61.54,-496.14 61.69,-486.32"/>
<polygon fill="black" stroke="black" points="65.18,-486.64 61.83,-476.59 58.18,-486.53 65.18,-486.64"/>
</g>
<!-- 2910291765232 -->
<g id="node14" class="node">
<title>2910291765232</title>
<polygon fill="lightgrey" stroke="black" points="207,-474.62 131,-474.62 131,-453.88 207,-453.88 207,-474.62"/>
<text xml:space="preserve" text-anchor="middle" x="169" y="-461.12" font-family="monospace" font-size="10.00">TBackward0</text>
</g>
<!-- 2910291765232&#45;&gt;2910291765136 -->
<g id="edge12" class="edge">
<title>2910291765232&#45;&gt;2910291765136</title>
<path fill="none" stroke="black" d="M168,-453.58C167,-443.96 165.44,-428.88 164.16,-416.54"/>
<polygon fill="black" stroke="black" points="167.67,-416.49 163.16,-406.91 160.71,-417.22 167.67,-416.49"/>
</g>
<!-- 2910291763888 -->
<g id="node15" class="node">
<title>2910291763888</title>
<polygon fill="lightgrey" stroke="black" points="220,-544.12 120,-544.12 120,-523.38 220,-523.38 220,-544.12"/>
<text xml:space="preserve" text-anchor="middle" x="170" y="-530.62" font-family="monospace" font-size="10.00">AccumulateGrad</text>
</g>
<!-- 2910291763888&#45;&gt;2910291765232 -->
<g id="edge13" class="edge">
<title>2910291763888&#45;&gt;2910291765232</title>
<path fill="none" stroke="black" d="M169.86,-523.08C169.71,-513.46 169.49,-498.38 169.31,-486.04"/>
<polygon fill="black" stroke="black" points="172.81,-486.36 169.17,-476.42 165.81,-486.47 172.81,-486.36"/>
</g>
<!-- 2910291810320 -->
<g id="node16" class="node">
<title>2910291810320</title>
<polygon fill="lightblue" stroke="black" points="217,-620 123,-620 123,-586.5 217,-586.5 217,-620"/>
<text xml:space="preserve" text-anchor="middle" x="170" y="-606.5" font-family="monospace" font-size="10.00">layer1.weight</text>
<text xml:space="preserve" text-anchor="middle" x="170" y="-593.75" font-family="monospace" font-size="10.00"> (32, 30)</text>
</g>
<!-- 2910291810320&#45;&gt;2910291763888 -->
<g id="edge14" class="edge">
<title>2910291810320&#45;&gt;2910291763888</title>
<path fill="none" stroke="black" d="M170,-586.25C170,-577.15 170,-565.64 170,-555.82"/>
<polygon fill="black" stroke="black" points="173.5,-556.09 170,-546.09 166.5,-556.09 173.5,-556.09"/>
</g>
<!-- 2910291765040 -->
<g id="node17" class="node">
<title>2910291765040</title>
<polygon fill="lightgrey" stroke="black" points="306,-335.62 230,-335.62 230,-314.88 306,-314.88 306,-335.62"/>
<text xml:space="preserve" text-anchor="middle" x="268" y="-322.12" font-family="monospace" font-size="10.00">TBackward0</text>
</g>
<!-- 2910291765040&#45;&gt;2910291765280 -->
<g id="edge15" class="edge">
<title>2910291765040&#45;&gt;2910291765280</title>
<path fill="none" stroke="black" d="M256.39,-314.58C243.6,-303.91 222.76,-286.55 207.26,-273.63"/>
<polygon fill="black" stroke="black" points="209.93,-271.3 200.01,-267.59 205.45,-276.68 209.93,-271.3"/>
</g>
<!-- 2910291763936 -->
<g id="node18" class="node">
<title>2910291763936</title>
<polygon fill="lightgrey" stroke="black" points="330,-405.12 230,-405.12 230,-384.38 330,-384.38 330,-405.12"/>
<text xml:space="preserve" text-anchor="middle" x="280" y="-391.62" font-family="monospace" font-size="10.00">AccumulateGrad</text>
</g>
<!-- 2910291763936&#45;&gt;2910291765040 -->
<g id="edge16" class="edge">
<title>2910291763936&#45;&gt;2910291765040</title>
<path fill="none" stroke="black" d="M278.28,-384.08C276.57,-374.46 273.89,-359.38 271.7,-347.04"/>
<polygon fill="black" stroke="black" points="275.18,-346.63 269.98,-337.39 268.29,-347.85 275.18,-346.63"/>
</g>
<!-- 2910291810400 -->
<g id="node19" class="node">
<title>2910291810400</title>
<polygon fill="lightblue" stroke="black" points="327,-481 233,-481 233,-447.5 327,-447.5 327,-481"/>
<text xml:space="preserve" text-anchor="middle" x="280" y="-467.5" font-family="monospace" font-size="10.00">layer2.weight</text>
<text xml:space="preserve" text-anchor="middle" x="280" y="-454.75" font-family="monospace" font-size="10.00"> (16, 32)</text>
</g>
<!-- 2910291810400&#45;&gt;2910291763936 -->
<g id="edge17" class="edge">
<title>2910291810400&#45;&gt;2910291763936</title>
<path fill="none" stroke="black" d="M280,-447.25C280,-438.15 280,-426.64 280,-416.82"/>
<polygon fill="black" stroke="black" points="283.5,-417.09 280,-407.09 276.5,-417.09 283.5,-417.09"/>
</g>
<!-- 2910291765664 -->
<g id="node20" class="node">
<title>2910291765664</title>
<polygon fill="lightgrey" stroke="black" points="359,-203 283,-203 283,-182.25 359,-182.25 359,-203"/>
<text xml:space="preserve" text-anchor="middle" x="321" y="-189.5" font-family="monospace" font-size="10.00">TBackward0</text>
</g>
<!-- 2910291765664&#45;&gt;2910291763456 -->
<g id="edge18" class="edge">
<title>2910291765664&#45;&gt;2910291763456</title>
<path fill="none" stroke="black" d="M297.58,-181.84C277,-173.23 246.8,-160.61 223.63,-150.93"/>
<polygon fill="black" stroke="black" points="225.19,-147.79 214.61,-147.16 222.49,-154.25 225.19,-147.79"/>
</g>
<!-- 2910291765376 -->
<g id="node21" class="node">
<title>2910291765376</title>
<polygon fill="lightgrey" stroke="black" points="399,-266.12 299,-266.12 299,-245.38 399,-245.38 399,-266.12"/>
<text xml:space="preserve" text-anchor="middle" x="349" y="-252.62" font-family="monospace" font-size="10.00">AccumulateGrad</text>
</g>
<!-- 2910291765376&#45;&gt;2910291765664 -->
<g id="edge19" class="edge">
<title>2910291765376&#45;&gt;2910291765664</title>
<path fill="none" stroke="black" d="M344.5,-244.93C340.64,-236.5 334.96,-224.09 330.15,-213.59"/>
<polygon fill="black" stroke="black" points="333.37,-212.23 326.03,-204.6 327.01,-215.15 333.37,-212.23"/>
</g>
<!-- 2910289474160 -->
<g id="node22" class="node">
<title>2910289474160</title>
<polygon fill="lightblue" stroke="black" points="418,-342 324,-342 324,-308.5 418,-308.5 418,-342"/>
<text xml:space="preserve" text-anchor="middle" x="371" y="-328.5" font-family="monospace" font-size="10.00">output.weight</text>
<text xml:space="preserve" text-anchor="middle" x="371" y="-315.75" font-family="monospace" font-size="10.00"> (1, 16)</text>
</g>
<!-- 2910289474160&#45;&gt;2910291765376 -->
<g id="edge20" class="edge">
<title>2910289474160&#45;&gt;2910291765376</title>
<path fill="none" stroke="black" d="M365.79,-308.25C362.79,-299.05 358.99,-287.39 355.76,-277.49"/>
<polygon fill="black" stroke="black" points="359.1,-276.43 352.67,-268.01 352.44,-278.6 359.1,-276.43"/>
</g>
</g>
</svg>
