<?xml version="1.0" encoding="UTF-8" standalone="no"?>
<!DOCTYPE svg PUBLIC "-//W3C//DTD SVG 1.1//EN"
 "http://www.w3.org/Graphics/SVG/1.1/DTD/svg11.dtd">
<!-- Generated by graphviz version 14.0.2 (20251019.1705)
 -->
<!-- Pages: 1 -->
<svg width="401pt" height="742pt"
 viewBox="0.00 0.00 401.00 742.00" xmlns="http://www.w3.org/2000/svg" xmlns:xlink="http://www.w3.org/1999/xlink">
<g id="graph0" class="graph" transform="scale(1 1) rotate(0) translate(4 737.5)">
<polygon fill="white" stroke="none" points="-4,4 -4,-737.5 397,-737.5 397,4 -4,4"/>
<!-- 2910291782608 -->
<g id="node1" class="node">
<title>2910291782608</title>
<polygon fill="#caff70" stroke="black" points="224,-32.75 166,-32.75 166,0 224,0 224,-32.75"/>
<text xml:space="preserve" text-anchor="middle" x="195" y="-7.25" font-family="monospace" font-size="10.00"> (1, 1)</text>
</g>
<!-- 2910289320976 -->
<g id="node2" class="node">
<title>2910289320976</title>
<polygon fill="lightgrey" stroke="black" points="251,-89.5 139,-89.5 139,-68.75 251,-68.75 251,-89.5"/>
<text xml:space="preserve" text-anchor="middle" x="195" y="-76" font-family="monospace" font-size="10.00">SigmoidBackward0</text>
</g>
<!-- 2910289320976&#45;&gt;2910291782608 -->
<g id="edge23" class="edge">
<title>2910289320976&#45;&gt;2910291782608</title>
<path fill="none" stroke="black" d="M195,-68.36C195,-61.89 195,-53.05 195,-44.55"/>
<polygon fill="black" stroke="black" points="198.5,-44.55 195,-34.55 191.5,-44.55 198.5,-44.55"/>
</g>
<!-- 2910289321072 -->
<g id="node3" class="node">
<title>2910289321072</title>
<polygon fill="lightgrey" stroke="black" points="245,-146.25 145,-146.25 145,-125.5 245,-125.5 245,-146.25"/>
<text xml:space="preserve" text-anchor="middle" x="195" y="-132.75" font-family="monospace" font-size="10.00">AddmmBackward0</text>
</g>
<!-- 2910289321072&#45;&gt;2910289320976 -->
<g id="edge1" class="edge">
<title>2910289321072&#45;&gt;2910289320976</title>
<path fill="none" stroke="black" d="M195,-125.09C195,-118.47 195,-109.47 195,-101.27"/>
<polygon fill="black" stroke="black" points="198.5,-101.34 195,-91.34 191.5,-101.34 198.5,-101.34"/>
</g>
<!-- 2910289321504 -->
<g id="node4" class="node">
<title>2910289321504</title>
<polygon fill="lightgrey" stroke="black" points="125,-203 25,-203 25,-182.25 125,-182.25 125,-203"/>
<text xml:space="preserve" text-anchor="middle" x="75" y="-189.5" font-family="monospace" font-size="10.00">AccumulateGrad</text>
</g>
<!-- 2910289321504&#45;&gt;2910289321072 -->
<g id="edge2" class="edge">
<title>2910289321504&#45;&gt;2910289321072</title>
<path fill="none" stroke="black" d="M96.45,-181.84C115.05,-173.35 142.22,-160.95 163.33,-151.33"/>
<polygon fill="black" stroke="black" points="164.71,-154.54 172.36,-147.21 161.8,-148.17 164.71,-154.54"/>
</g>
<!-- 2910291808720 -->
<g id="node5" class="node">
<title>2910291808720</title>
<polygon fill="lightblue" stroke="black" points="130,-272.5 6,-272.5 6,-239 130,-239 130,-272.5"/>
<text xml:space="preserve" text-anchor="middle" x="68" y="-259" font-family="monospace" font-size="10.00">layer_stack.6.bias</text>
<text xml:space="preserve" text-anchor="middle" x="68" y="-246.25" font-family="monospace" font-size="10.00"> (1)</text>
</g>
<!-- 2910291808720&#45;&gt;2910289321504 -->
<g id="edge3" class="edge">
<title>2910291808720&#45;&gt;2910289321504</title>
<path fill="none" stroke="black" d="M69.84,-238.69C70.68,-231.35 71.69,-222.57 72.59,-214.71"/>
<polygon fill="black" stroke="black" points="76.04,-215.3 73.7,-204.97 69.09,-214.51 76.04,-215.3"/>
</g>
<!-- 2910289319008 -->
<g id="node6" class="node">
<title>2910289319008</title>
<polygon fill="lightgrey" stroke="black" points="239,-203 151,-203 151,-182.25 239,-182.25 239,-203"/>
<text xml:space="preserve" text-anchor="middle" x="195" y="-189.5" font-family="monospace" font-size="10.00">MulBackward0</text>
</g>
<!-- 2910289319008&#45;&gt;2910289321072 -->
<g id="edge4" class="edge">
<title>2910289319008&#45;&gt;2910289321072</title>
<path fill="none" stroke="black" d="M195,-181.84C195,-175.22 195,-166.22 195,-158.02"/>
<polygon fill="black" stroke="black" points="198.5,-158.09 195,-148.09 191.5,-158.09 198.5,-158.09"/>
</g>
<!-- 2910289452576 -->
<g id="node7" class="node">
<title>2910289452576</title>
<polygon fill="lightgrey" stroke="black" points="242,-266.12 148,-266.12 148,-245.38 242,-245.38 242,-266.12"/>
<text xml:space="preserve" text-anchor="middle" x="195" y="-252.62" font-family="monospace" font-size="10.00">ReluBackward0</text>
</g>
<!-- 2910289452576&#45;&gt;2910289319008 -->
<g id="edge5" class="edge">
<title>2910289452576&#45;&gt;2910289319008</title>
<path fill="none" stroke="black" d="M195,-244.93C195,-236.77 195,-224.88 195,-214.6"/>
<polygon fill="black" stroke="black" points="198.5,-214.73 195,-204.73 191.5,-214.73 198.5,-214.73"/>
</g>
<!-- 2910289450272 -->
<g id="node8" class="node">
<title>2910289450272</title>
<polygon fill="lightgrey" stroke="black" points="239,-335.62 139,-335.62 139,-314.88 239,-314.88 239,-335.62"/>
<text xml:space="preserve" text-anchor="middle" x="189" y="-322.12" font-family="monospace" font-size="10.00">AddmmBackward0</text>
</g>
<!-- 2910289450272&#45;&gt;2910289452576 -->
<g id="edge6" class="edge">
<title>2910289450272&#45;&gt;2910289452576</title>
<path fill="none" stroke="black" d="M189.86,-314.58C190.72,-304.96 192.06,-289.88 193.15,-277.54"/>
<polygon fill="black" stroke="black" points="196.61,-278.18 194.01,-267.91 189.64,-277.56 196.61,-278.18"/>
</g>
<!-- 2910289452240 -->
<g id="node9" class="node">
<title>2910289452240</title>
<polygon fill="lightgrey" stroke="black" points="120,-398.75 20,-398.75 20,-378 120,-378 120,-398.75"/>
<text xml:space="preserve" text-anchor="middle" x="70" y="-385.25" font-family="monospace" font-size="10.00">AccumulateGrad</text>
</g>
<!-- 2910289452240&#45;&gt;2910289450272 -->
<g id="edge7" class="edge">
<title>2910289452240&#45;&gt;2910289450272</title>
<path fill="none" stroke="black" d="M89.12,-377.55C108.2,-367.75 137.78,-352.56 159.8,-341.25"/>
<polygon fill="black" stroke="black" points="161.29,-344.42 168.58,-336.74 158.09,-338.19 161.29,-344.42"/>
</g>
<!-- 2910291808640 -->
<g id="node10" class="node">
<title>2910291808640</title>
<polygon fill="lightblue" stroke="black" points="124,-468.25 0,-468.25 0,-434.75 124,-434.75 124,-468.25"/>
<text xml:space="preserve" text-anchor="middle" x="62" y="-454.75" font-family="monospace" font-size="10.00">layer_stack.3.bias</text>
<text xml:space="preserve" text-anchor="middle" x="62" y="-442" font-family="monospace" font-size="10.00"> (32)</text>
</g>
<!-- 2910291808640&#45;&gt;2910289452240 -->
<g id="edge8" class="edge">
<title>2910291808640&#45;&gt;2910289452240</title>
<path fill="none" stroke="black" d="M64.1,-434.44C65.06,-427.1 66.21,-418.32 67.24,-410.46"/>
<polygon fill="black" stroke="black" points="70.69,-411.09 68.52,-400.72 63.75,-410.18 70.69,-411.09"/>
</g>
<!-- 2910289449456 -->
<g id="node11" class="node">
<title>2910289449456</title>
<polygon fill="lightgrey" stroke="black" points="233,-398.75 145,-398.75 145,-378 233,-378 233,-398.75"/>
<text xml:space="preserve" text-anchor="middle" x="189" y="-385.25" font-family="monospace" font-size="10.00">MulBackward0</text>
</g>
<!-- 2910289449456&#45;&gt;2910289450272 -->
<g id="edge9" class="edge">
<title>2910289449456&#45;&gt;2910289450272</title>
<path fill="none" stroke="black" d="M189,-377.55C189,-369.4 189,-357.51 189,-347.23"/>
<polygon fill="black" stroke="black" points="192.5,-347.36 189,-337.36 185.5,-347.36 192.5,-347.36"/>
</g>
<!-- 2910289450848 -->
<g id="node12" class="node">
<title>2910289450848</title>
<polygon fill="lightgrey" stroke="black" points="236,-461.88 142,-461.88 142,-441.12 236,-441.12 236,-461.88"/>
<text xml:space="preserve" text-anchor="middle" x="189" y="-448.38" font-family="monospace" font-size="10.00">ReluBackward0</text>
</g>
<!-- 2910289450848&#45;&gt;2910289449456 -->
<g id="edge10" class="edge">
<title>2910289450848&#45;&gt;2910289449456</title>
<path fill="none" stroke="black" d="M189,-440.68C189,-432.52 189,-420.63 189,-410.35"/>
<polygon fill="black" stroke="black" points="192.5,-410.48 189,-400.48 185.5,-410.48 192.5,-410.48"/>
</g>
<!-- 2910289449072 -->
<g id="node13" class="node">
<title>2910289449072</title>
<polygon fill="lightgrey" stroke="black" points="233,-531.38 133,-531.38 133,-510.62 233,-510.62 233,-531.38"/>
<text xml:space="preserve" text-anchor="middle" x="183" y="-517.88" font-family="monospace" font-size="10.00">AddmmBackward0</text>
</g>
<!-- 2910289449072&#45;&gt;2910289450848 -->
<g id="edge11" class="edge">
<title>2910289449072&#45;&gt;2910289450848</title>
<path fill="none" stroke="black" d="M183.86,-510.33C184.72,-500.71 186.06,-485.63 187.15,-473.29"/>
<polygon fill="black" stroke="black" points="190.61,-473.93 188.01,-463.66 183.64,-473.31 190.61,-473.93"/>
</g>
<!-- 2910289449216 -->
<g id="node14" class="node">
<title>2910289449216</title>
<polygon fill="lightgrey" stroke="black" points="180,-594.5 80,-594.5 80,-573.75 180,-573.75 180,-594.5"/>
<text xml:space="preserve" text-anchor="middle" x="130" y="-581" font-family="monospace" font-size="10.00">AccumulateGrad</text>
</g>
<!-- 2910289449216&#45;&gt;2910289449072 -->
<g id="edge12" class="edge">
<title>2910289449216&#45;&gt;2910289449072</title>
<path fill="none" stroke="black" d="M138.52,-573.3C146.29,-564.34 157.97,-550.87 167.41,-539.98"/>
<polygon fill="black" stroke="black" points="169.78,-542.59 173.69,-532.74 164.49,-538 169.78,-542.59"/>
</g>
<!-- 2910291808560 -->
<g id="node15" class="node">
<title>2910291808560</title>
<polygon fill="lightblue" stroke="black" points="180,-664 56,-664 56,-630.5 180,-630.5 180,-664"/>
<text xml:space="preserve" text-anchor="middle" x="118" y="-650.5" font-family="monospace" font-size="10.00">layer_stack.0.bias</text>
<text xml:space="preserve" text-anchor="middle" x="118" y="-637.75" font-family="monospace" font-size="10.00"> (64)</text>
</g>
<!-- 2910291808560&#45;&gt;2910289449216 -->
<g id="edge13" class="edge">
<title>2910291808560&#45;&gt;2910289449216</title>
<path fill="none" stroke="black" d="M121.15,-630.19C122.59,-622.85 124.32,-614.07 125.86,-606.21"/>
<polygon fill="black" stroke="black" points="129.28,-606.94 127.78,-596.45 122.42,-605.59 129.28,-606.94"/>
</g>
<!-- 2910289452912 -->
<g id="node16" class="node">
<title>2910289452912</title>
<polygon fill="lightgrey" stroke="black" points="280,-594.5 204,-594.5 204,-573.75 280,-573.75 280,-594.5"/>
<text xml:space="preserve" text-anchor="middle" x="242" y="-581" font-family="monospace" font-size="10.00">TBackward0</text>
</g>
<!-- 2910289452912&#45;&gt;2910289449072 -->
<g id="edge14" class="edge">
<title>2910289452912&#45;&gt;2910289449072</title>
<path fill="none" stroke="black" d="M232.52,-573.3C223.78,-564.25 210.6,-550.6 200.04,-539.65"/>
<polygon fill="black" stroke="black" points="202.78,-537.45 193.31,-532.68 197.74,-542.31 202.78,-537.45"/>
</g>
<!-- 2910289449312 -->
<g id="node17" class="node">
<title>2910289449312</title>
<polygon fill="lightgrey" stroke="black" points="298,-657.62 198,-657.62 198,-636.88 298,-636.88 298,-657.62"/>
<text xml:space="preserve" text-anchor="middle" x="248" y="-644.12" font-family="monospace" font-size="10.00">AccumulateGrad</text>
</g>
<!-- 2910289449312&#45;&gt;2910289452912 -->
<g id="edge15" class="edge">
<title>2910289449312&#45;&gt;2910289452912</title>
<path fill="none" stroke="black" d="M247.04,-636.43C246.24,-628.27 245.07,-616.38 244.06,-606.1"/>
<polygon fill="black" stroke="black" points="247.55,-605.84 243.09,-596.23 240.58,-606.52 247.55,-605.84"/>
</g>
<!-- 2910291808320 -->
<g id="node18" class="node">
<title>2910291808320</title>
<polygon fill="lightblue" stroke="black" points="316,-733.5 180,-733.5 180,-700 316,-700 316,-733.5"/>
<text xml:space="preserve" text-anchor="middle" x="248" y="-720" font-family="monospace" font-size="10.00">layer_stack.0.weight</text>
<text xml:space="preserve" text-anchor="middle" x="248" y="-707.25" font-family="monospace" font-size="10.00"> (64, 30)</text>
</g>
<!-- 2910291808320&#45;&gt;2910289449312 -->
<g id="edge16" class="edge">
<title>2910291808320&#45;&gt;2910289449312</title>
<path fill="none" stroke="black" d="M248,-699.75C248,-690.65 248,-679.14 248,-669.32"/>
<polygon fill="black" stroke="black" points="251.5,-669.59 248,-659.59 244.5,-669.59 251.5,-669.59"/>
</g>
<!-- 2910289451088 -->
<g id="node19" class="node">
<title>2910289451088</title>
<polygon fill="lightgrey" stroke="black" points="339,-398.75 263,-398.75 263,-378 339,-378 339,-398.75"/>
<text xml:space="preserve" text-anchor="middle" x="301" y="-385.25" font-family="monospace" font-size="10.00">TBackward0</text>
</g>
<!-- 2910289451088&#45;&gt;2910289450272 -->
<g id="edge17" class="edge">
<title>2910289451088&#45;&gt;2910289450272</title>
<path fill="none" stroke="black" d="M283.01,-377.55C265.21,-367.84 237.71,-352.83 217.05,-341.56"/>
<polygon fill="black" stroke="black" points="218.73,-338.49 208.28,-336.77 215.38,-344.63 218.73,-338.49"/>
</g>
<!-- 2910289452720 -->
<g id="node20" class="node">
<title>2910289452720</title>
<polygon fill="lightgrey" stroke="black" points="364,-461.88 264,-461.88 264,-441.12 364,-441.12 364,-461.88"/>
<text xml:space="preserve" text-anchor="middle" x="314" y="-448.38" font-family="monospace" font-size="10.00">AccumulateGrad</text>
</g>
<!-- 2910289452720&#45;&gt;2910289451088 -->
<g id="edge18" class="edge">
<title>2910289452720&#45;&gt;2910289451088</title>
<path fill="none" stroke="black" d="M311.91,-440.68C310.16,-432.43 307.59,-420.37 305.39,-410.01"/>
<polygon fill="black" stroke="black" points="308.86,-409.5 303.36,-400.45 302.01,-410.96 308.86,-409.5"/>
</g>
<!-- 2910291808800 -->
<g id="node21" class="node">
<title>2910291808800</title>
<polygon fill="lightblue" stroke="black" points="387,-537.75 251,-537.75 251,-504.25 387,-504.25 387,-537.75"/>
<text xml:space="preserve" text-anchor="middle" x="319" y="-524.25" font-family="monospace" font-size="10.00">layer_stack.3.weight</text>
<text xml:space="preserve" text-anchor="middle" x="319" y="-511.5" font-family="monospace" font-size="10.00"> (32, 64)</text>
</g>
<!-- 2910291808800&#45;&gt;2910289452720 -->
<g id="edge19" class="edge">
<title>2910291808800&#45;&gt;2910289452720</title>
<path fill="none" stroke="black" d="M317.82,-504C317.14,-494.9 316.29,-483.39 315.56,-473.57"/>
<polygon fill="black" stroke="black" points="319.07,-473.55 314.84,-463.83 312.09,-474.06 319.07,-473.55"/>
</g>
<!-- 2910289321360 -->
<g id="node22" class="node">
<title>2910289321360</title>
<polygon fill="lightgrey" stroke="black" points="340,-203 264,-203 264,-182.25 340,-182.25 340,-203"/>
<text xml:space="preserve" text-anchor="middle" x="302" y="-189.5" font-family="monospace" font-size="10.00">TBackward0</text>
</g>
<!-- 2910289321360&#45;&gt;2910289321072 -->
<g id="edge20" class="edge">
<title>2910289321360&#45;&gt;2910289321072</title>
<path fill="none" stroke="black" d="M282.87,-181.84C266.51,-173.47 242.72,-161.29 224.02,-151.72"/>
<polygon fill="black" stroke="black" points="225.81,-148.71 215.31,-147.27 222.62,-154.94 225.81,-148.71"/>
</g>
<!-- 2910289450656 -->
<g id="node23" class="node">
<title>2910289450656</title>
<polygon fill="lightgrey" stroke="black" points="365,-266.12 265,-266.12 265,-245.38 365,-245.38 365,-266.12"/>
<text xml:space="preserve" text-anchor="middle" x="315" y="-252.62" font-family="monospace" font-size="10.00">AccumulateGrad</text>
</g>
<!-- 2910289450656&#45;&gt;2910289321360 -->
<g id="edge21" class="edge">
<title>2910289450656&#45;&gt;2910289321360</title>
<path fill="none" stroke="black" d="M312.91,-244.93C311.16,-236.68 308.59,-224.62 306.39,-214.26"/>
<polygon fill="black" stroke="black" points="309.86,-213.75 304.36,-204.7 303.01,-215.21 309.86,-213.75"/>
</g>
<!-- 2910291808480 -->
<g id="node24" class="node">
<title>2910291808480</title>
<polygon fill="lightblue" stroke="black" points="393,-342 257,-342 257,-308.5 393,-308.5 393,-342"/>
<text xml:space="preserve" text-anchor="middle" x="325" y="-328.5" font-family="monospace" font-size="10.00">layer_stack.6.weight</text>
<text xml:space="preserve" text-anchor="middle" x="325" y="-315.75" font-family="monospace" font-size="10.00"> (1, 32)</text>
</g>
<!-- 2910291808480&#45;&gt;2910289450656 -->
<g id="edge22" class="edge">
<title>2910291808480&#45;&gt;2910289450656</title>
<path fill="none" stroke="black" d="M322.63,-308.25C321.28,-299.15 319.58,-287.64 318.12,-277.82"/>
<polygon fill="black" stroke="black" points="321.6,-277.45 316.68,-268.07 314.68,-278.47 321.6,-277.45"/>
</g>
</g>
</svg>
