<?xml version="1.0" encoding="UTF-8" standalone="no"?>
<!DOCTYPE svg PUBLIC "-//W3C//DTD SVG 1.1//EN"
 "http://www.w3.org/Graphics/SVG/1.1/DTD/svg11.dtd">
<!-- Generated by graphviz version 14.0.2 (20251019.1705)
 -->
<!-- Pages: 1 -->
<svg width="426pt" height="571pt"
 viewBox="0.00 0.00 426.00 571.00" xmlns="http://www.w3.org/2000/svg" xmlns:xlink="http://www.w3.org/1999/xlink">
<g id="graph0" class="graph" transform="scale(1 1) rotate(0) translate(4 567.25)">
<polygon fill="white" stroke="none" points="-4,4 -4,-567.25 422,-567.25 422,4 -4,4"/>
<!-- 2910133268544 -->
<g id="node1" class="node">
<title>2910133268544</title>
<polygon fill="#caff70" stroke="black" points="219,-32.75 161,-32.75 161,0 219,0 219,-32.75"/>
<text xml:space="preserve" text-anchor="middle" x="190" y="-7.25" font-family="monospace" font-size="10.00"> (1, 1)</text>
</g>
<!-- 2910133396720 -->
<g id="node2" class="node">
<title>2910133396720</title>
<polygon fill="lightgrey" stroke="black" points="240,-89.5 140,-89.5 140,-68.75 240,-68.75 240,-89.5"/>
<text xml:space="preserve" text-anchor="middle" x="190" y="-76" font-family="monospace" font-size="10.00">AddmmBackward0</text>
</g>
<!-- 2910133396720&#45;&gt;2910133268544 -->
<g id="edge20" class="edge">
<title>2910133396720&#45;&gt;2910133268544</title>
<path fill="none" stroke="black" d="M190,-68.36C190,-61.89 190,-53.05 190,-44.55"/>
<polygon fill="black" stroke="black" points="193.5,-44.55 190,-34.55 186.5,-44.55 193.5,-44.55"/>
</g>
<!-- 2910133396768 -->
<g id="node3" class="node">
<title>2910133396768</title>
<polygon fill="lightgrey" stroke="black" points="125,-146.25 25,-146.25 25,-125.5 125,-125.5 125,-146.25"/>
<text xml:space="preserve" text-anchor="middle" x="75" y="-132.75" font-family="monospace" font-size="10.00">AccumulateGrad</text>
</g>
<!-- 2910133396768&#45;&gt;2910133396720 -->
<g id="edge1" class="edge">
<title>2910133396768&#45;&gt;2910133396720</title>
<path fill="none" stroke="black" d="M95.56,-125.09C113.3,-116.64 139.18,-104.32 159.37,-94.71"/>
<polygon fill="black" stroke="black" points="160.73,-97.94 168.25,-90.48 157.72,-91.62 160.73,-97.94"/>
</g>
<!-- 2911731186640 -->
<g id="node4" class="node">
<title>2911731186640</title>
<polygon fill="lightblue" stroke="black" points="116,-215.75 34,-215.75 34,-182.25 116,-182.25 116,-215.75"/>
<text xml:space="preserve" text-anchor="middle" x="75" y="-202.25" font-family="monospace" font-size="10.00">output.bias</text>
<text xml:space="preserve" text-anchor="middle" x="75" y="-189.5" font-family="monospace" font-size="10.00"> (1)</text>
</g>
<!-- 2911731186640&#45;&gt;2910133396768 -->
<g id="edge2" class="edge">
<title>2911731186640&#45;&gt;2910133396768</title>
<path fill="none" stroke="black" d="M75,-181.94C75,-174.6 75,-165.82 75,-157.96"/>
<polygon fill="black" stroke="black" points="78.5,-158.23 75,-148.23 71.5,-158.23 78.5,-158.23"/>
</g>
<!-- 2910133395568 -->
<g id="node5" class="node">
<title>2910133395568</title>
<polygon fill="lightgrey" stroke="black" points="237,-146.25 143,-146.25 143,-125.5 237,-125.5 237,-146.25"/>
<text xml:space="preserve" text-anchor="middle" x="190" y="-132.75" font-family="monospace" font-size="10.00">ReluBackward0</text>
</g>
<!-- 2910133395568&#45;&gt;2910133396720 -->
<g id="edge3" class="edge">
<title>2910133395568&#45;&gt;2910133396720</title>
<path fill="none" stroke="black" d="M190,-125.09C190,-118.47 190,-109.47 190,-101.27"/>
<polygon fill="black" stroke="black" points="193.5,-101.34 190,-91.34 186.5,-101.34 193.5,-101.34"/>
</g>
<!-- 2910133396576 -->
<g id="node6" class="node">
<title>2910133396576</title>
<polygon fill="lightgrey" stroke="black" points="237,-209.38 137,-209.38 137,-188.62 237,-188.62 237,-209.38"/>
<text xml:space="preserve" text-anchor="middle" x="187" y="-195.88" font-family="monospace" font-size="10.00">AddmmBackward0</text>
</g>
<!-- 2910133396576&#45;&gt;2910133395568 -->
<g id="edge4" class="edge">
<title>2910133396576&#45;&gt;2910133395568</title>
<path fill="none" stroke="black" d="M187.48,-188.18C187.88,-180.02 188.47,-168.13 188.97,-157.85"/>
<polygon fill="black" stroke="black" points="192.46,-158.14 189.45,-147.98 185.47,-157.8 192.46,-158.14"/>
</g>
<!-- 2910133396816 -->
<g id="node7" class="node">
<title>2910133396816</title>
<polygon fill="lightgrey" stroke="black" points="100,-278.88 0,-278.88 0,-258.12 100,-258.12 100,-278.88"/>
<text xml:space="preserve" text-anchor="middle" x="50" y="-265.38" font-family="monospace" font-size="10.00">AccumulateGrad</text>
</g>
<!-- 2910133396816&#45;&gt;2910133396576 -->
<g id="edge5" class="edge">
<title>2910133396816&#45;&gt;2910133396576</title>
<path fill="none" stroke="black" d="M69.92,-257.68C92.75,-246.44 130.41,-227.88 156.84,-214.86"/>
<polygon fill="black" stroke="black" points="158.27,-218.06 165.7,-210.5 155.18,-211.78 158.27,-218.06"/>
</g>
<!-- 2911731185120 -->
<g id="node8" class="node">
<title>2911731185120</title>
<polygon fill="lightblue" stroke="black" points="91,-354.75 9,-354.75 9,-321.25 91,-321.25 91,-354.75"/>
<text xml:space="preserve" text-anchor="middle" x="50" y="-341.25" font-family="monospace" font-size="10.00">layer2.bias</text>
<text xml:space="preserve" text-anchor="middle" x="50" y="-328.5" font-family="monospace" font-size="10.00"> (32)</text>
</g>
<!-- 2911731185120&#45;&gt;2910133396816 -->
<g id="edge6" class="edge">
<title>2911731185120&#45;&gt;2910133396816</title>
<path fill="none" stroke="black" d="M50,-321C50,-311.9 50,-300.39 50,-290.57"/>
<polygon fill="black" stroke="black" points="53.5,-290.84 50,-280.84 46.5,-290.84 53.5,-290.84"/>
</g>
<!-- 2910133396672 -->
<g id="node9" class="node">
<title>2910133396672</title>
<polygon fill="lightgrey" stroke="black" points="212,-278.88 118,-278.88 118,-258.12 212,-258.12 212,-278.88"/>
<text xml:space="preserve" text-anchor="middle" x="165" y="-265.38" font-family="monospace" font-size="10.00">ReluBackward0</text>
</g>
<!-- 2910133396672&#45;&gt;2910133396576 -->
<g id="edge7" class="edge">
<title>2910133396672&#45;&gt;2910133396576</title>
<path fill="none" stroke="black" d="M168.15,-257.83C171.32,-248.1 176.3,-232.82 180.35,-220.4"/>
<polygon fill="black" stroke="black" points="183.61,-221.68 183.38,-211.09 176.96,-219.52 183.61,-221.68"/>
</g>
<!-- 2910133398400 -->
<g id="node10" class="node">
<title>2910133398400</title>
<polygon fill="lightgrey" stroke="black" points="212,-348.38 112,-348.38 112,-327.62 212,-327.62 212,-348.38"/>
<text xml:space="preserve" text-anchor="middle" x="162" y="-334.88" font-family="monospace" font-size="10.00">AddmmBackward0</text>
</g>
<!-- 2910133398400&#45;&gt;2910133396672 -->
<g id="edge8" class="edge">
<title>2910133398400&#45;&gt;2910133396672</title>
<path fill="none" stroke="black" d="M162.43,-327.33C162.86,-317.71 163.53,-302.63 164.08,-290.29"/>
<polygon fill="black" stroke="black" points="167.56,-290.81 164.5,-280.67 160.56,-290.5 167.56,-290.81"/>
</g>
<!-- 2910133398496 -->
<g id="node11" class="node">
<title>2910133398496</title>
<polygon fill="lightgrey" stroke="black" points="112,-417.88 12,-417.88 12,-397.12 112,-397.12 112,-417.88"/>
<text xml:space="preserve" text-anchor="middle" x="62" y="-404.38" font-family="monospace" font-size="10.00">AccumulateGrad</text>
</g>
<!-- 2910133398496&#45;&gt;2910133398400 -->
<g id="edge9" class="edge">
<title>2910133398496&#45;&gt;2910133398400</title>
<path fill="none" stroke="black" d="M76.33,-396.83C92.42,-385.96 118.81,-368.15 138.05,-355.16"/>
<polygon fill="black" stroke="black" points="139.79,-358.22 146.12,-349.72 135.87,-352.41 139.79,-358.22"/>
</g>
<!-- 2911731186480 -->
<g id="node12" class="node">
<title>2911731186480</title>
<polygon fill="lightblue" stroke="black" points="102,-493.75 20,-493.75 20,-460.25 102,-460.25 102,-493.75"/>
<text xml:space="preserve" text-anchor="middle" x="61" y="-480.25" font-family="monospace" font-size="10.00">layer1.bias</text>
<text xml:space="preserve" text-anchor="middle" x="61" y="-467.5" font-family="monospace" font-size="10.00"> (64)</text>
</g>
<!-- 2911731186480&#45;&gt;2910133398496 -->
<g id="edge10" class="edge">
<title>2911731186480&#45;&gt;2910133398496</title>
<path fill="none" stroke="black" d="M61.24,-460C61.37,-450.9 61.54,-439.39 61.69,-429.57"/>
<polygon fill="black" stroke="black" points="65.18,-429.89 61.83,-419.84 58.18,-429.78 65.18,-429.89"/>
</g>
<!-- 2910133398352 -->
<g id="node13" class="node">
<title>2910133398352</title>
<polygon fill="lightgrey" stroke="black" points="207,-417.88 131,-417.88 131,-397.12 207,-397.12 207,-417.88"/>
<text xml:space="preserve" text-anchor="middle" x="169" y="-404.38" font-family="monospace" font-size="10.00">TBackward0</text>
</g>
<!-- 2910133398352&#45;&gt;2910133398400 -->
<g id="edge11" class="edge">
<title>2910133398352&#45;&gt;2910133398400</title>
<path fill="none" stroke="black" d="M168,-396.83C167,-387.21 165.44,-372.13 164.16,-359.79"/>
<polygon fill="black" stroke="black" points="167.67,-359.74 163.16,-350.16 160.71,-360.47 167.67,-359.74"/>
</g>
<!-- 2910133398640 -->
<g id="node14" class="node">
<title>2910133398640</title>
<polygon fill="lightgrey" stroke="black" points="220,-487.38 120,-487.38 120,-466.62 220,-466.62 220,-487.38"/>
<text xml:space="preserve" text-anchor="middle" x="170" y="-473.88" font-family="monospace" font-size="10.00">AccumulateGrad</text>
</g>
<!-- 2910133398640&#45;&gt;2910133398352 -->
<g id="edge12" class="edge">
<title>2910133398640&#45;&gt;2910133398352</title>
<path fill="none" stroke="black" d="M169.86,-466.33C169.71,-456.71 169.49,-441.63 169.31,-429.29"/>
<polygon fill="black" stroke="black" points="172.81,-429.61 169.17,-419.67 165.81,-429.72 172.81,-429.61"/>
</g>
<!-- 2911731185040 -->
<g id="node15" class="node">
<title>2911731185040</title>
<polygon fill="lightblue" stroke="black" points="217,-563.25 123,-563.25 123,-529.75 217,-529.75 217,-563.25"/>
<text xml:space="preserve" text-anchor="middle" x="170" y="-549.75" font-family="monospace" font-size="10.00">layer1.weight</text>
<text xml:space="preserve" text-anchor="middle" x="170" y="-537" font-family="monospace" font-size="10.00"> (64, 8)</text>
</g>
<!-- 2911731185040&#45;&gt;2910133398640 -->
<g id="edge13" class="edge">
<title>2911731185040&#45;&gt;2910133398640</title>
<path fill="none" stroke="black" d="M170,-529.5C170,-520.4 170,-508.89 170,-499.07"/>
<polygon fill="black" stroke="black" points="173.5,-499.34 170,-489.34 166.5,-499.34 173.5,-499.34"/>
</g>
<!-- 2910133396864 -->
<g id="node16" class="node">
<title>2910133396864</title>
<polygon fill="lightgrey" stroke="black" points="306,-278.88 230,-278.88 230,-258.12 306,-258.12 306,-278.88"/>
<text xml:space="preserve" text-anchor="middle" x="268" y="-265.38" font-family="monospace" font-size="10.00">TBackward0</text>
</g>
<!-- 2910133396864&#45;&gt;2910133396576 -->
<g id="edge14" class="edge">
<title>2910133396864&#45;&gt;2910133396576</title>
<path fill="none" stroke="black" d="M256.39,-257.83C243.6,-247.16 222.76,-229.8 207.26,-216.88"/>
<polygon fill="black" stroke="black" points="209.93,-214.55 200.01,-210.84 205.45,-219.93 209.93,-214.55"/>
</g>
<!-- 2910133398832 -->
<g id="node17" class="node">
<title>2910133398832</title>
<polygon fill="lightgrey" stroke="black" points="330,-348.38 230,-348.38 230,-327.62 330,-327.62 330,-348.38"/>
<text xml:space="preserve" text-anchor="middle" x="280" y="-334.88" font-family="monospace" font-size="10.00">AccumulateGrad</text>
</g>
<!-- 2910133398832&#45;&gt;2910133396864 -->
<g id="edge15" class="edge">
<title>2910133398832&#45;&gt;2910133396864</title>
<path fill="none" stroke="black" d="M278.28,-327.33C276.57,-317.71 273.89,-302.63 271.7,-290.29"/>
<polygon fill="black" stroke="black" points="275.18,-289.88 269.98,-280.64 268.29,-291.1 275.18,-289.88"/>
</g>
<!-- 2910116388032 -->
<g id="node18" class="node">
<title>2910116388032</title>
<polygon fill="lightblue" stroke="black" points="327,-424.25 233,-424.25 233,-390.75 327,-390.75 327,-424.25"/>
<text xml:space="preserve" text-anchor="middle" x="280" y="-410.75" font-family="monospace" font-size="10.00">layer2.weight</text>
<text xml:space="preserve" text-anchor="middle" x="280" y="-398" font-family="monospace" font-size="10.00"> (32, 64)</text>
</g>
<!-- 2910116388032&#45;&gt;2910133398832 -->
<g id="edge16" class="edge">
<title>2910116388032&#45;&gt;2910133398832</title>
<path fill="none" stroke="black" d="M280,-390.5C280,-381.4 280,-369.89 280,-360.07"/>
<polygon fill="black" stroke="black" points="283.5,-360.34 280,-350.34 276.5,-360.34 283.5,-360.34"/>
</g>
<!-- 2910133395712 -->
<g id="node19" class="node">
<title>2910133395712</title>
<polygon fill="lightgrey" stroke="black" points="359,-146.25 283,-146.25 283,-125.5 359,-125.5 359,-146.25"/>
<text xml:space="preserve" text-anchor="middle" x="321" y="-132.75" font-family="monospace" font-size="10.00">TBackward0</text>
</g>
<!-- 2910133395712&#45;&gt;2910133396720 -->
<g id="edge17" class="edge">
<title>2910133395712&#45;&gt;2910133396720</title>
<path fill="none" stroke="black" d="M297.58,-125.09C277,-116.48 246.8,-103.86 223.63,-94.18"/>
<polygon fill="black" stroke="black" points="225.19,-91.04 214.61,-90.41 222.49,-97.5 225.19,-91.04"/>
</g>
<!-- 2910133398304 -->
<g id="node20" class="node">
<title>2910133398304</title>
<polygon fill="lightgrey" stroke="black" points="399,-209.38 299,-209.38 299,-188.62 399,-188.62 399,-209.38"/>
<text xml:space="preserve" text-anchor="middle" x="349" y="-195.88" font-family="monospace" font-size="10.00">AccumulateGrad</text>
</g>
<!-- 2910133398304&#45;&gt;2910133395712 -->
<g id="edge18" class="edge">
<title>2910133398304&#45;&gt;2910133395712</title>
<path fill="none" stroke="black" d="M344.5,-188.18C340.64,-179.75 334.96,-167.34 330.15,-156.84"/>
<polygon fill="black" stroke="black" points="333.37,-155.48 326.03,-147.85 327.01,-158.4 333.37,-155.48"/>
</g>
<!-- 2911731186560 -->
<g id="node21" class="node">
<title>2911731186560</title>
<polygon fill="lightblue" stroke="black" points="418,-285.25 324,-285.25 324,-251.75 418,-251.75 418,-285.25"/>
<text xml:space="preserve" text-anchor="middle" x="371" y="-271.75" font-family="monospace" font-size="10.00">output.weight</text>
<text xml:space="preserve" text-anchor="middle" x="371" y="-259" font-family="monospace" font-size="10.00"> (1, 32)</text>
</g>
<!-- 2911731186560&#45;&gt;2910133398304 -->
<g id="edge19" class="edge">
<title>2911731186560&#45;&gt;2910133398304</title>
<path fill="none" stroke="black" d="M365.79,-251.5C362.79,-242.3 358.99,-230.64 355.76,-220.74"/>
<polygon fill="black" stroke="black" points="359.1,-219.68 352.67,-211.26 352.44,-221.85 359.1,-219.68"/>
</g>
</g>
</svg>
