<?xml version="1.0" encoding="UTF-8" standalone="no"?>
<!DOCTYPE svg PUBLIC "-//W3C//DTD SVG 1.1//EN"
 "http://www.w3.org/Graphics/SVG/1.1/DTD/svg11.dtd">
<!-- Generated by graphviz version 14.0.2 (20251019.1705)
 -->
<!-- Pages: 1 -->
<svg width="495pt" height="824pt"
 viewBox="0.00 0.00 495.00 824.00" xmlns="http://www.w3.org/2000/svg" xmlns:xlink="http://www.w3.org/1999/xlink">
<g id="graph0" class="graph" transform="scale(1 1) rotate(0) translate(4 819.75)">
<polygon fill="white" stroke="none" points="-4,4 -4,-819.75 491,-819.75 491,4 -4,4"/>
<!-- 2910159774480 -->
<g id="node1" class="node">
<title>2910159774480</title>
<polygon fill="#caff70" stroke="black" points="250,-32.75 192,-32.75 192,0 250,0 250,-32.75"/>
<text xml:space="preserve" text-anchor="middle" x="221" y="-7.25" font-family="monospace" font-size="10.00"> (1, 1)</text>
</g>
<!-- 2910192049600 -->
<g id="node2" class="node">
<title>2910192049600</title>
<polygon fill="lightgrey" stroke="black" points="271,-89.5 171,-89.5 171,-68.75 271,-68.75 271,-89.5"/>
<text xml:space="preserve" text-anchor="middle" x="221" y="-76" font-family="monospace" font-size="10.00">AddmmBackward0</text>
</g>
<!-- 2910192049600&#45;&gt;2910159774480 -->
<g id="edge29" class="edge">
<title>2910192049600&#45;&gt;2910159774480</title>
<path fill="none" stroke="black" d="M221,-68.36C221,-61.89 221,-53.05 221,-44.55"/>
<polygon fill="black" stroke="black" points="224.5,-44.55 221,-34.55 217.5,-44.55 224.5,-44.55"/>
</g>
<!-- 2910192049936 -->
<g id="node3" class="node">
<title>2910192049936</title>
<polygon fill="lightgrey" stroke="black" points="149,-146.25 49,-146.25 49,-125.5 149,-125.5 149,-146.25"/>
<text xml:space="preserve" text-anchor="middle" x="99" y="-132.75" font-family="monospace" font-size="10.00">AccumulateGrad</text>
</g>
<!-- 2910192049936&#45;&gt;2910192049600 -->
<g id="edge1" class="edge">
<title>2910192049936&#45;&gt;2910192049600</title>
<path fill="none" stroke="black" d="M120.81,-125.09C139.81,-116.56 167.6,-104.09 189.09,-94.44"/>
<polygon fill="black" stroke="black" points="190.31,-97.74 198,-90.45 187.44,-91.35 190.31,-97.74"/>
</g>
<!-- 2910116381456 -->
<g id="node4" class="node">
<title>2910116381456</title>
<polygon fill="lightblue" stroke="black" points="153,-215.75 29,-215.75 29,-182.25 153,-182.25 153,-215.75"/>
<text xml:space="preserve" text-anchor="middle" x="91" y="-202.25" font-family="monospace" font-size="10.00">layer_stack.8.bias</text>
<text xml:space="preserve" text-anchor="middle" x="91" y="-189.5" font-family="monospace" font-size="10.00"> (1)</text>
</g>
<!-- 2910116381456&#45;&gt;2910192049936 -->
<g id="edge2" class="edge">
<title>2910116381456&#45;&gt;2910192049936</title>
<path fill="none" stroke="black" d="M93.1,-181.94C94.06,-174.6 95.21,-165.82 96.24,-157.96"/>
<polygon fill="black" stroke="black" points="99.69,-158.59 97.52,-148.22 92.75,-157.68 99.69,-158.59"/>
</g>
<!-- 2910192048976 -->
<g id="node5" class="node">
<title>2910192048976</title>
<polygon fill="lightgrey" stroke="black" points="268,-146.25 174,-146.25 174,-125.5 268,-125.5 268,-146.25"/>
<text xml:space="preserve" text-anchor="middle" x="221" y="-132.75" font-family="monospace" font-size="10.00">ReluBackward0</text>
</g>
<!-- 2910192048976&#45;&gt;2910192049600 -->
<g id="edge3" class="edge">
<title>2910192048976&#45;&gt;2910192049600</title>
<path fill="none" stroke="black" d="M221,-125.09C221,-118.47 221,-109.47 221,-101.27"/>
<polygon fill="black" stroke="black" points="224.5,-101.34 221,-91.34 217.5,-101.34 224.5,-101.34"/>
</g>
<!-- 2910192049648 -->
<g id="node6" class="node">
<title>2910192049648</title>
<polygon fill="lightgrey" stroke="black" points="271,-209.38 171,-209.38 171,-188.62 271,-188.62 271,-209.38"/>
<text xml:space="preserve" text-anchor="middle" x="221" y="-195.88" font-family="monospace" font-size="10.00">AddmmBackward0</text>
</g>
<!-- 2910192049648&#45;&gt;2910192048976 -->
<g id="edge4" class="edge">
<title>2910192049648&#45;&gt;2910192048976</title>
<path fill="none" stroke="black" d="M221,-188.18C221,-180.02 221,-168.13 221,-157.85"/>
<polygon fill="black" stroke="black" points="224.5,-157.98 221,-147.98 217.5,-157.98 224.5,-157.98"/>
</g>
<!-- 2910192050128 -->
<g id="node7" class="node">
<title>2910192050128</title>
<polygon fill="lightgrey" stroke="black" points="125,-278.88 25,-278.88 25,-258.12 125,-258.12 125,-278.88"/>
<text xml:space="preserve" text-anchor="middle" x="75" y="-265.38" font-family="monospace" font-size="10.00">AccumulateGrad</text>
</g>
<!-- 2910192050128&#45;&gt;2910192049648 -->
<g id="edge5" class="edge">
<title>2910192050128&#45;&gt;2910192049648</title>
<path fill="none" stroke="black" d="M96.23,-257.68C120.77,-246.34 161.41,-227.55 189.61,-214.51"/>
<polygon fill="black" stroke="black" points="190.76,-217.84 198.37,-210.46 187.83,-211.48 190.76,-217.84"/>
</g>
<!-- 2910191859408 -->
<g id="node8" class="node">
<title>2910191859408</title>
<polygon fill="lightblue" stroke="black" points="130,-354.75 6,-354.75 6,-321.25 130,-321.25 130,-354.75"/>
<text xml:space="preserve" text-anchor="middle" x="68" y="-341.25" font-family="monospace" font-size="10.00">layer_stack.6.bias</text>
<text xml:space="preserve" text-anchor="middle" x="68" y="-328.5" font-family="monospace" font-size="10.00"> (32)</text>
</g>
<!-- 2910191859408&#45;&gt;2910192050128 -->
<g id="edge6" class="edge">
<title>2910191859408&#45;&gt;2910192050128</title>
<path fill="none" stroke="black" d="M69.66,-321C70.6,-311.9 71.8,-300.39 72.82,-290.57"/>
<polygon fill="black" stroke="black" points="76.28,-291.14 73.83,-280.83 69.31,-290.41 76.28,-291.14"/>
</g>
<!-- 2910192048256 -->
<g id="node9" class="node">
<title>2910192048256</title>
<polygon fill="lightgrey" stroke="black" points="239,-278.88 151,-278.88 151,-258.12 239,-258.12 239,-278.88"/>
<text xml:space="preserve" text-anchor="middle" x="195" y="-265.38" font-family="monospace" font-size="10.00">MulBackward0</text>
</g>
<!-- 2910192048256&#45;&gt;2910192049648 -->
<g id="edge7" class="edge">
<title>2910192048256&#45;&gt;2910192049648</title>
<path fill="none" stroke="black" d="M198.73,-257.83C202.51,-248 208.48,-232.5 213.29,-220.02"/>
<polygon fill="black" stroke="black" points="216.41,-221.66 216.74,-211.07 209.88,-219.14 216.41,-221.66"/>
</g>
<!-- 2910192046240 -->
<g id="node10" class="node">
<title>2910192046240</title>
<polygon fill="lightgrey" stroke="black" points="242,-348.38 148,-348.38 148,-327.62 242,-327.62 242,-348.38"/>
<text xml:space="preserve" text-anchor="middle" x="195" y="-334.88" font-family="monospace" font-size="10.00">ReluBackward0</text>
</g>
<!-- 2910192046240&#45;&gt;2910192048256 -->
<g id="edge8" class="edge">
<title>2910192046240&#45;&gt;2910192048256</title>
<path fill="none" stroke="black" d="M195,-327.33C195,-317.71 195,-302.63 195,-290.29"/>
<polygon fill="black" stroke="black" points="198.5,-290.67 195,-280.67 191.5,-290.67 198.5,-290.67"/>
</g>
<!-- 2910192048160 -->
<g id="node11" class="node">
<title>2910192048160</title>
<polygon fill="lightgrey" stroke="black" points="239,-417.88 139,-417.88 139,-397.12 239,-397.12 239,-417.88"/>
<text xml:space="preserve" text-anchor="middle" x="189" y="-404.38" font-family="monospace" font-size="10.00">AddmmBackward0</text>
</g>
<!-- 2910192048160&#45;&gt;2910192046240 -->
<g id="edge9" class="edge">
<title>2910192048160&#45;&gt;2910192046240</title>
<path fill="none" stroke="black" d="M189.86,-396.83C190.72,-387.21 192.06,-372.13 193.15,-359.79"/>
<polygon fill="black" stroke="black" points="196.61,-360.43 194.01,-350.16 189.64,-359.81 196.61,-360.43"/>
</g>
<!-- 2910192048208 -->
<g id="node12" class="node">
<title>2910192048208</title>
<polygon fill="lightgrey" stroke="black" points="120,-481 20,-481 20,-460.25 120,-460.25 120,-481"/>
<text xml:space="preserve" text-anchor="middle" x="70" y="-467.5" font-family="monospace" font-size="10.00">AccumulateGrad</text>
</g>
<!-- 2910192048208&#45;&gt;2910192048160 -->
<g id="edge10" class="edge">
<title>2910192048208&#45;&gt;2910192048160</title>
<path fill="none" stroke="black" d="M89.12,-459.8C108.2,-450 137.78,-434.81 159.8,-423.5"/>
<polygon fill="black" stroke="black" points="161.29,-426.67 168.58,-418.99 158.09,-420.44 161.29,-426.67"/>
</g>
<!-- 2910159776320 -->
<g id="node13" class="node">
<title>2910159776320</title>
<polygon fill="lightblue" stroke="black" points="124,-550.5 0,-550.5 0,-517 124,-517 124,-550.5"/>
<text xml:space="preserve" text-anchor="middle" x="62" y="-537" font-family="monospace" font-size="10.00">layer_stack.3.bias</text>
<text xml:space="preserve" text-anchor="middle" x="62" y="-524.25" font-family="monospace" font-size="10.00"> (64)</text>
</g>
<!-- 2910159776320&#45;&gt;2910192048208 -->
<g id="edge11" class="edge">
<title>2910159776320&#45;&gt;2910192048208</title>
<path fill="none" stroke="black" d="M64.1,-516.69C65.06,-509.35 66.21,-500.57 67.24,-492.71"/>
<polygon fill="black" stroke="black" points="70.69,-493.34 68.52,-482.97 63.75,-492.43 70.69,-493.34"/>
</g>
<!-- 2910192048112 -->
<g id="node14" class="node">
<title>2910192048112</title>
<polygon fill="lightgrey" stroke="black" points="233,-481 145,-481 145,-460.25 233,-460.25 233,-481"/>
<text xml:space="preserve" text-anchor="middle" x="189" y="-467.5" font-family="monospace" font-size="10.00">MulBackward0</text>
</g>
<!-- 2910192048112&#45;&gt;2910192048160 -->
<g id="edge12" class="edge">
<title>2910192048112&#45;&gt;2910192048160</title>
<path fill="none" stroke="black" d="M189,-459.8C189,-451.65 189,-439.76 189,-429.48"/>
<polygon fill="black" stroke="black" points="192.5,-429.61 189,-419.61 185.5,-429.61 192.5,-429.61"/>
</g>
<!-- 2910116419424 -->
<g id="node15" class="node">
<title>2910116419424</title>
<polygon fill="lightgrey" stroke="black" points="236,-544.12 142,-544.12 142,-523.38 236,-523.38 236,-544.12"/>
<text xml:space="preserve" text-anchor="middle" x="189" y="-530.62" font-family="monospace" font-size="10.00">ReluBackward0</text>
</g>
<!-- 2910116419424&#45;&gt;2910192048112 -->
<g id="edge13" class="edge">
<title>2910116419424&#45;&gt;2910192048112</title>
<path fill="none" stroke="black" d="M189,-522.93C189,-514.77 189,-502.88 189,-492.6"/>
<polygon fill="black" stroke="black" points="192.5,-492.73 189,-482.73 185.5,-492.73 192.5,-492.73"/>
</g>
<!-- 2910116421584 -->
<g id="node16" class="node">
<title>2910116421584</title>
<polygon fill="lightgrey" stroke="black" points="233,-613.62 133,-613.62 133,-592.88 233,-592.88 233,-613.62"/>
<text xml:space="preserve" text-anchor="middle" x="183" y="-600.12" font-family="monospace" font-size="10.00">AddmmBackward0</text>
</g>
<!-- 2910116421584&#45;&gt;2910116419424 -->
<g id="edge14" class="edge">
<title>2910116421584&#45;&gt;2910116419424</title>
<path fill="none" stroke="black" d="M183.86,-592.58C184.72,-582.96 186.06,-567.88 187.15,-555.54"/>
<polygon fill="black" stroke="black" points="190.61,-556.18 188.01,-545.91 183.64,-555.56 190.61,-556.18"/>
</g>
<!-- 2910116419808 -->
<g id="node17" class="node">
<title>2910116419808</title>
<polygon fill="lightgrey" stroke="black" points="180,-676.75 80,-676.75 80,-656 180,-656 180,-676.75"/>
<text xml:space="preserve" text-anchor="middle" x="130" y="-663.25" font-family="monospace" font-size="10.00">AccumulateGrad</text>
</g>
<!-- 2910116419808&#45;&gt;2910116421584 -->
<g id="edge15" class="edge">
<title>2910116419808&#45;&gt;2910116421584</title>
<path fill="none" stroke="black" d="M138.52,-655.55C146.29,-646.59 157.97,-633.12 167.41,-622.23"/>
<polygon fill="black" stroke="black" points="169.78,-624.84 173.69,-614.99 164.49,-620.25 169.78,-624.84"/>
</g>
<!-- 2910191862544 -->
<g id="node18" class="node">
<title>2910191862544</title>
<polygon fill="lightblue" stroke="black" points="180,-746.25 56,-746.25 56,-712.75 180,-712.75 180,-746.25"/>
<text xml:space="preserve" text-anchor="middle" x="118" y="-732.75" font-family="monospace" font-size="10.00">layer_stack.0.bias</text>
<text xml:space="preserve" text-anchor="middle" x="118" y="-720" font-family="monospace" font-size="10.00"> (128)</text>
</g>
<!-- 2910191862544&#45;&gt;2910116419808 -->
<g id="edge16" class="edge">
<title>2910191862544&#45;&gt;2910116419808</title>
<path fill="none" stroke="black" d="M121.15,-712.44C122.59,-705.1 124.32,-696.32 125.86,-688.46"/>
<polygon fill="black" stroke="black" points="129.28,-689.19 127.78,-678.7 122.42,-687.84 129.28,-689.19"/>
</g>
<!-- 2910116419856 -->
<g id="node19" class="node">
<title>2910116419856</title>
<polygon fill="lightgrey" stroke="black" points="280,-676.75 204,-676.75 204,-656 280,-656 280,-676.75"/>
<text xml:space="preserve" text-anchor="middle" x="242" y="-663.25" font-family="monospace" font-size="10.00">TBackward0</text>
</g>
<!-- 2910116419856&#45;&gt;2910116421584 -->
<g id="edge17" class="edge">
<title>2910116419856&#45;&gt;2910116421584</title>
<path fill="none" stroke="black" d="M232.52,-655.55C223.78,-646.5 210.6,-632.85 200.04,-621.9"/>
<polygon fill="black" stroke="black" points="202.78,-619.7 193.31,-614.93 197.74,-624.56 202.78,-619.7"/>
</g>
<!-- 2910133630432 -->
<g id="node20" class="node">
<title>2910133630432</title>
<polygon fill="lightgrey" stroke="black" points="298,-739.88 198,-739.88 198,-719.12 298,-719.12 298,-739.88"/>
<text xml:space="preserve" text-anchor="middle" x="248" y="-726.38" font-family="monospace" font-size="10.00">AccumulateGrad</text>
</g>
<!-- 2910133630432&#45;&gt;2910116419856 -->
<g id="edge18" class="edge">
<title>2910133630432&#45;&gt;2910116419856</title>
<path fill="none" stroke="black" d="M247.04,-718.68C246.24,-710.52 245.07,-698.63 244.06,-688.35"/>
<polygon fill="black" stroke="black" points="247.55,-688.09 243.09,-678.48 240.58,-688.77 247.55,-688.09"/>
</g>
<!-- 2910079213376 -->
<g id="node21" class="node">
<title>2910079213376</title>
<polygon fill="lightblue" stroke="black" points="316,-815.75 180,-815.75 180,-782.25 316,-782.25 316,-815.75"/>
<text xml:space="preserve" text-anchor="middle" x="248" y="-802.25" font-family="monospace" font-size="10.00">layer_stack.0.weight</text>
<text xml:space="preserve" text-anchor="middle" x="248" y="-789.5" font-family="monospace" font-size="10.00"> (128, 8)</text>
</g>
<!-- 2910079213376&#45;&gt;2910133630432 -->
<g id="edge19" class="edge">
<title>2910079213376&#45;&gt;2910133630432</title>
<path fill="none" stroke="black" d="M248,-782C248,-772.9 248,-761.39 248,-751.57"/>
<polygon fill="black" stroke="black" points="251.5,-751.84 248,-741.84 244.5,-751.84 251.5,-751.84"/>
</g>
<!-- 2910192050032 -->
<g id="node22" class="node">
<title>2910192050032</title>
<polygon fill="lightgrey" stroke="black" points="339,-481 263,-481 263,-460.25 339,-460.25 339,-481"/>
<text xml:space="preserve" text-anchor="middle" x="301" y="-467.5" font-family="monospace" font-size="10.00">TBackward0</text>
</g>
<!-- 2910192050032&#45;&gt;2910192048160 -->
<g id="edge20" class="edge">
<title>2910192050032&#45;&gt;2910192048160</title>
<path fill="none" stroke="black" d="M283.01,-459.8C265.21,-450.09 237.71,-435.08 217.05,-423.81"/>
<polygon fill="black" stroke="black" points="218.73,-420.74 208.28,-419.02 215.38,-426.88 218.73,-420.74"/>
</g>
<!-- 2910116419664 -->
<g id="node23" class="node">
<title>2910116419664</title>
<polygon fill="lightgrey" stroke="black" points="364,-544.12 264,-544.12 264,-523.38 364,-523.38 364,-544.12"/>
<text xml:space="preserve" text-anchor="middle" x="314" y="-530.62" font-family="monospace" font-size="10.00">AccumulateGrad</text>
</g>
<!-- 2910116419664&#45;&gt;2910192050032 -->
<g id="edge21" class="edge">
<title>2910116419664&#45;&gt;2910192050032</title>
<path fill="none" stroke="black" d="M311.91,-522.93C310.16,-514.68 307.59,-502.62 305.39,-492.26"/>
<polygon fill="black" stroke="black" points="308.86,-491.75 303.36,-482.7 302.01,-493.21 308.86,-491.75"/>
</g>
<!-- 2910151626480 -->
<g id="node24" class="node">
<title>2910151626480</title>
<polygon fill="lightblue" stroke="black" points="387,-620 251,-620 251,-586.5 387,-586.5 387,-620"/>
<text xml:space="preserve" text-anchor="middle" x="319" y="-606.5" font-family="monospace" font-size="10.00">layer_stack.3.weight</text>
<text xml:space="preserve" text-anchor="middle" x="319" y="-593.75" font-family="monospace" font-size="10.00"> (64, 128)</text>
</g>
<!-- 2910151626480&#45;&gt;2910116419664 -->
<g id="edge22" class="edge">
<title>2910151626480&#45;&gt;2910116419664</title>
<path fill="none" stroke="black" d="M317.82,-586.25C317.14,-577.15 316.29,-565.64 315.56,-555.82"/>
<polygon fill="black" stroke="black" points="319.07,-555.8 314.84,-546.08 312.09,-556.31 319.07,-555.8"/>
</g>
<!-- 2910192049360 -->
<g id="node25" class="node">
<title>2910192049360</title>
<polygon fill="lightgrey" stroke="black" points="333,-278.88 257,-278.88 257,-258.12 333,-258.12 333,-278.88"/>
<text xml:space="preserve" text-anchor="middle" x="295" y="-265.38" font-family="monospace" font-size="10.00">TBackward0</text>
</g>
<!-- 2910192049360&#45;&gt;2910192049648 -->
<g id="edge23" class="edge">
<title>2910192049360&#45;&gt;2910192049648</title>
<path fill="none" stroke="black" d="M284.4,-257.83C272.86,-247.3 254.17,-230.26 240.07,-217.39"/>
<polygon fill="black" stroke="black" points="242.45,-214.83 232.7,-210.67 237.73,-220 242.45,-214.83"/>
</g>
<!-- 2910192048064 -->
<g id="node26" class="node">
<title>2910192048064</title>
<polygon fill="lightgrey" stroke="black" points="365,-348.38 265,-348.38 265,-327.62 365,-327.62 365,-348.38"/>
<text xml:space="preserve" text-anchor="middle" x="315" y="-334.88" font-family="monospace" font-size="10.00">AccumulateGrad</text>
</g>
<!-- 2910192048064&#45;&gt;2910192049360 -->
<g id="edge24" class="edge">
<title>2910192048064&#45;&gt;2910192049360</title>
<path fill="none" stroke="black" d="M312.13,-327.33C309.25,-317.6 304.72,-302.32 301.04,-289.9"/>
<polygon fill="black" stroke="black" points="304.49,-289.2 298.29,-280.6 297.78,-291.19 304.49,-289.2"/>
</g>
<!-- 2910159776240 -->
<g id="node27" class="node">
<title>2910159776240</title>
<polygon fill="lightblue" stroke="black" points="393,-424.25 257,-424.25 257,-390.75 393,-390.75 393,-424.25"/>
<text xml:space="preserve" text-anchor="middle" x="325" y="-410.75" font-family="monospace" font-size="10.00">layer_stack.6.weight</text>
<text xml:space="preserve" text-anchor="middle" x="325" y="-398" font-family="monospace" font-size="10.00"> (32, 64)</text>
</g>
<!-- 2910159776240&#45;&gt;2910192048064 -->
<g id="edge25" class="edge">
<title>2910159776240&#45;&gt;2910192048064</title>
<path fill="none" stroke="black" d="M322.63,-390.5C321.28,-381.4 319.58,-369.89 318.12,-360.07"/>
<polygon fill="black" stroke="black" points="321.6,-359.7 316.68,-350.32 314.68,-360.72 321.6,-359.7"/>
</g>
<!-- 2910192049024 -->
<g id="node28" class="node">
<title>2910192049024</title>
<polygon fill="lightgrey" stroke="black" points="396,-146.25 320,-146.25 320,-125.5 396,-125.5 396,-146.25"/>
<text xml:space="preserve" text-anchor="middle" x="358" y="-132.75" font-family="monospace" font-size="10.00">TBackward0</text>
</g>
<!-- 2910192049024&#45;&gt;2910192049600 -->
<g id="edge26" class="edge">
<title>2910192049024&#45;&gt;2910192049600</title>
<path fill="none" stroke="black" d="M333.51,-125.09C311.88,-116.44 280.11,-103.75 255.84,-94.05"/>
<polygon fill="black" stroke="black" points="257.27,-90.85 246.69,-90.39 254.67,-97.35 257.27,-90.85"/>
</g>
<!-- 2910116419136 -->
<g id="node29" class="node">
<title>2910116419136</title>
<polygon fill="lightgrey" stroke="black" points="442,-209.38 342,-209.38 342,-188.62 442,-188.62 442,-209.38"/>
<text xml:space="preserve" text-anchor="middle" x="392" y="-195.88" font-family="monospace" font-size="10.00">AccumulateGrad</text>
</g>
<!-- 2910116419136&#45;&gt;2910192049024 -->
<g id="edge27" class="edge">
<title>2910116419136&#45;&gt;2910192049024</title>
<path fill="none" stroke="black" d="M386.54,-188.18C381.8,-179.66 374.8,-167.08 368.92,-156.51"/>
<polygon fill="black" stroke="black" points="371.99,-154.83 364.07,-147.79 365.88,-158.23 371.99,-154.83"/>
</g>
<!-- 2910191858768 -->
<g id="node30" class="node">
<title>2910191858768</title>
<polygon fill="lightblue" stroke="black" points="487,-285.25 351,-285.25 351,-251.75 487,-251.75 487,-285.25"/>
<text xml:space="preserve" text-anchor="middle" x="419" y="-271.75" font-family="monospace" font-size="10.00">layer_stack.8.weight</text>
<text xml:space="preserve" text-anchor="middle" x="419" y="-259" font-family="monospace" font-size="10.00"> (1, 32)</text>
</g>
<!-- 2910191858768&#45;&gt;2910116419136 -->
<g id="edge28" class="edge">
<title>2910191858768&#45;&gt;2910116419136</title>
<path fill="none" stroke="black" d="M412.6,-251.5C408.88,-242.2 404.15,-230.38 400.17,-220.41"/>
<polygon fill="black" stroke="black" points="403.45,-219.21 396.49,-211.23 396.96,-221.81 403.45,-219.21"/>
</g>
</g>
</svg>
